Coordinates
version=1
nRows=26
nColumns=24
inDegrees=yes

Units are S.I. units (second, meters, Newtons, ...)
Angles are in degrees.

endheader
time	pelvis_tilt	pelvis_list	pelvis_rotation	pelvis_tx	pelvis_ty	pelvis_tz	hip_flexion_r	hip_adduction_r	hip_rotation_r	knee_angle_r	ankle_angle_r	subtalar_angle_r	mtp_angle_r	hip_flexion_l	hip_adduction_l	hip_rotation_l	knee_angle_l	ankle_angle_l	subtalar_angle_l	mtp_angle_l	lumbar_extension	lumbar_bending	lumbar_rotation
      5.49000000	      2.62948172	      5.22118580	     -1.84005750	      0.61537355	      1.05989150	     -0.23396524	      9.87620183	     -6.90736257	     -4.03168598	    -62.31250092	    -29.56017614	    -43.54286841	      0.00000000	      3.14091094	     11.26322050	      4.69013017	     -8.54961569	      5.81711965	    -19.44757560	      0.00000000	    -18.16761571	     -5.54488728	     -4.03471723
      5.50000000	      2.47282352	      4.80431597	     -1.44107455	      0.62592543	      1.06085379	     -0.23485118	     11.14487230	     -6.43094573	     -4.02415476	    -62.39674496	    -27.02322633	    -43.91958320	      0.00000000	      2.37680719	     10.89404966	      5.41101236	     -8.10731650	      5.96764067	    -19.71492023	      0.00000000	    -18.12096263	     -4.89687436	     -4.35123855
      5.51000000	      2.32735772	      4.40335270	     -1.07891939	      0.63638253	      1.06169935	     -0.23558116	     12.38145604	     -5.95824383	     -3.98238690	    -62.28797761	    -24.54064300	    -43.85373899	      0.00000000	      1.61027219	     10.51740341	      6.07507581	     -7.65089891	      6.10969408	    -19.98069157	      0.00000000	    -18.09965002	     -4.30431851	     -4.58650182
      5.52000000	      2.18053513	      4.03086103	     -0.71959549	      0.64680975	      1.06240896	     -0.23621481	     13.57755209	     -5.51857339	     -3.95320418	    -61.97611554	    -22.20776217	    -43.45706964	      0.00000000	      0.84151066	     10.14758157	      6.68129531	     -7.16346702	      6.23250103	    -20.21541794	      0.00000000	    -18.07224147	     -3.76272549	     -4.78696893
      5.53000000	      2.04474823	      3.70453424	     -0.37541222	      0.65719382	      1.06297271	     -0.23672121	     14.72215003	     -5.12451205	     -3.91569549	    -61.47273354	    -19.96196384	    -42.73643494	      0.00000000	      0.06184321	      9.80593404	      7.26506418	     -6.65560770	      6.32784605	    -20.45565645	      0.00000000	    -18.06061079	     -3.30241252	     -4.94684116
      5.54000000	      1.91268332	      3.42159357	     -0.00050578	      0.66754803	      1.06339419	     -0.23716455	     15.80313774	     -4.78871281	     -3.91976678	    -60.76675032	    -17.81721691	    -41.78396101	      0.00000000	     -0.71633906	      9.49109243	      7.84542773	     -6.14592877	      6.37247470	    -20.65819106	      0.00000000	    -18.05680844	     -2.90500309	     -5.13052059
      5.55000000	      1.79384023	      3.19704275	      0.35949469	      0.67785811	      1.06365317	     -0.23750698	     16.82099679	     -4.51566386	     -3.91234897	    -59.87511256	    -15.67901726	    -40.61491527	      0.00000000	     -1.49663145	      9.22469178	      8.41157384	     -5.64222054	      6.43012219	    -20.92075129	      0.00000000	    -18.07760826	     -2.59283279	     -5.32426441
      5.56000000	      1.68498757	      3.03192941	      0.73275001	      0.68815349	      1.06376040	     -0.23778142	     17.76242689	     -4.31637904	     -3.92400033	    -58.78905407	    -13.58902292	    -39.32007435	      0.00000000	     -2.27953090	      9.00825878	      8.97939148	     -5.14787713	      6.47284779	    -21.20644202	      0.00000000	    -18.10855750	     -2.36154573	     -5.54909894
      5.57000000	      1.58501470	      2.92040444	      1.11992643	      0.69842651	      1.06372905	     -0.23801107	     18.61985935	     -4.18790946	     -3.95772299	    -57.50215018	    -11.59681317	    -37.99821724	      0.00000000	     -3.06099523	      8.83872609	      9.53492340	     -4.66840144	      6.49356123	    -21.50662572	      0.00000000	    -18.15118364	     -2.19881261	     -5.81527416
      5.58000000	      1.49084303	      2.86448446	      1.49758582	      0.70869570	      1.06355260	     -0.23816867	     19.39610469	     -4.12777869	     -3.99974997	    -56.02084284	     -9.72759017	    -36.71914520	      0.00000000	     -3.84152764	      8.72127508	     10.05727812	     -4.19771504	      6.49808336	    -21.85393452	      0.00000000	    -18.19948082	     -2.11410305	     -6.10670719
      5.59000000	      1.40750523	      2.85391449	      1.87939928	      0.71897330	      1.06326576	     -0.23828655	     20.07114872	     -4.12757122	     -4.06134078	    -54.33428791	     -8.08164078	    -35.58417969	      0.00000000	     -4.62821394	      8.64570570	     10.53489839	     -3.73615460	      6.48001697	    -22.20075287	      0.00000000	    -18.25374207	     -2.08330681	     -6.43239370
      5.60000000	      1.29094896	      2.88616336	      2.23012067	      0.72926877	      1.06280712	     -0.23833623	     20.69969717	     -4.17439535	     -4.11100889	    -52.45764517	     -6.62678216	    -34.57191967	      0.00000000	     -5.37907797	      8.61732639	     10.98432431	     -3.27365122	      6.39950755	    -22.67574215	      0.00000000	    -18.25776767	     -2.11439866	     -6.77029671
      5.61000000	      1.26820279	      2.96853402	      2.57061849	      0.73962057	      1.06237963	     -0.23831862	     21.12277755	     -4.27531369	     -4.17456980	    -50.36910820	     -5.46357390	    -33.77802267	      0.00000000	     -6.22969568	      8.63203681	     11.28361019	     -2.81527578	      6.35061132	    -22.97199238	      0.00000000	    -18.36633336	     -2.21032277	     -7.12719590
      5.62000000	      1.21208998	      3.09430417	      2.87662534	      0.75004471	      1.06181074	     -0.23824945	     21.49057412	     -4.42345759	     -4.23257121	    -48.10001841	     -4.43275180	    -33.01295544	      0.00000000	     -7.04731567	      8.69668456	     11.53226968	     -2.36273254	      6.25831111	    -23.32320813	      0.00000000	    -18.41266998	     -2.36007487	     -7.49323601
      5.63000000	      1.12975357	      3.26309205	      3.16584748	      0.76055331	      1.06112948	     -0.23813677	     21.78920673	     -4.61917057	     -4.29840043	    -45.65278482	     -3.54537144	    -32.24047913	      0.00000000	     -7.84843890	      8.80488905	     11.76903907	     -1.90372709	      6.05422977	    -23.75295421	      0.00000000	    -18.41113960	     -2.56736241	     -7.88982235
      5.64000000	      1.12605505	      3.44134664	      3.39901838	      0.77118906	      1.06049014	     -0.23792692	     21.89504396	     -4.80256680	     -4.35207629	    -43.00544619	     -2.77838060	    -31.43326708	      0.00000000	     -8.73363776	      8.91779282	     11.84155463	     -1.45203631	      5.90319700	    -24.03784870	      0.00000000	    -18.48055995	     -2.79037723	     -8.24900790
      5.65000000	      1.13270819	      3.63989827	      3.61303592	      0.78196141	      1.05981213	     -0.23767893	     21.88174308	     -5.00366698	     -4.43900607	    -40.17686503	     -2.03668645	    -30.47224803	      0.00000000	     -9.64669393	      9.04201296	     11.92910163	     -0.99260004	      5.75431845	    -24.26946151	      0.00000000	    -18.53731208	     -3.03590922	     -8.59699070
      5.66000000	      1.14943783	      3.85147623	      3.80944392	      0.79286964	      1.05910660	     -0.23741016	     21.75345633	     -5.22053019	     -4.59627543	    -37.18131776	     -1.32945529	    -29.25969310	      0.00000000	    -10.57960357	      9.16859954	     12.01582477	     -0.53595355	      5.57191447	    -24.44158562	      0.00000000	    -18.58334969	     -3.29428347	     -8.95428641
      5.67000000	      1.17041234	      4.07505024	      3.99418992	      0.80391525	      1.05836455	     -0.23711921	     21.52375554	     -5.45231030	     -4.86164731	    -34.04413620	     -0.55907662	    -27.69122918	      0.00000000	    -11.51570475	      9.29509023	     12.09975957	     -0.09962311	      5.36414309	    -24.60059737	      0.00000000	    -18.61706105	     -3.56284729	     -9.32802818
      5.68000000	      1.19098899	      4.30709840	      4.18160933	      0.81510975	      1.05758574	     -0.23682938	     21.20074255	     -5.68944972	     -5.24780279	    -30.78989180	      0.29328658	    -25.78603638	      0.00000000	    -12.44175891	      9.41472067	     12.19603715	      0.29643330	      5.13589796	    -24.71477863	      0.00000000	    -18.63184639	     -3.82874634	     -9.73262836
      5.69000000	      1.25204912	      4.54580077	      4.36173391	      0.82648437	      1.05681412	     -0.23651482	     20.75731213	     -5.92138855	     -5.79116997	    -27.46657123	      1.16505119	    -23.54845656	      0.00000000	    -13.41788655	      9.51699332	     12.33355933	      0.68359930	      4.91956703	    -24.72008340	      0.00000000	    -18.67256155	     -4.09669916	    -10.11514260
      5.70000000	      1.33359992	      4.79630882	      4.54398060	      0.83803584	      1.05602345	     -0.23618329	     20.23739640	     -6.14857664	     -6.50145110	    -24.14282716	      2.08803038	    -20.97085268	      0.00000000	    -14.40430925	      9.60940986	     12.50125160	      1.02564883	      4.70297365	    -24.64296276	      0.00000000	    -18.72034214	     -4.37091293	    -10.50202826
      5.71000000	      1.44634875	      5.05596998	      4.71684874	      0.84976109	      1.05523066	     -0.23579984	     19.65472687	     -6.35029513	     -7.34083767	    -20.88796739	      2.99589196	    -18.14408576	      0.00000000	    -15.40348236	      9.69017361	     12.68895240	      1.30952882	      4.48797824	    -24.48894978	      0.00000000	    -18.79024487	     -4.65294125	    -10.87644057
      5.72000000	      1.59229479	      5.30969855	      4.87702096	      0.86165576	      1.05445490	     -0.23534275	     19.02382612	     -6.49621695	     -8.23167972	    -17.75796587	      3.81594084	    -15.22150504	      0.00000000	    -16.40564250	      9.74525952	     12.88928911	      1.51983003	      4.27437419	    -24.26910125	      0.00000000	    -18.88731206	     -4.92881287	    -11.22583124
      5.73000000	      1.77520602	      5.53807937	      5.01532486	      0.87370199	      1.05372542	     -0.23477638	     18.34444137	     -6.55073080	     -9.03491978	    -14.78429265	      4.44580673	    -12.43624541	      0.00000000	    -17.39866232	      9.75896437	     13.08784158	      1.63660854	      4.06437801	    -23.99587809	      0.00000000	    -19.01832801	     -5.18076632	    -11.53666870
      5.74000000	      1.98971185	      5.72799080	      5.12006583	      0.88588568	      1.05305785	     -0.23408093	     17.61550467	     -6.49411735	     -9.57434663	    -11.97796938	      4.79020838	    -10.06926303	      0.00000000	    -18.36226972	      9.72648665	     13.26634392	      1.64157286	      3.85742985	    -23.68023737	      0.00000000	    -19.18020188	     -5.40113158	    -11.78265513
